<?xml version="1.0" encoding="UTF-8" standalone="no"?>
<svg
   version="1.0"
   width="617.000000pt"
   height="404.000000pt"
   viewBox="0 0 617.000000 404.000000"
   preserveAspectRatio="xMidYMid meet"
   id="svg17"
   sodipodi:docname="SIUUU.svg"
   inkscape:version="1.4 (86a8ad7, 2024-10-11)"
   xmlns:inkscape="http://www.inkscape.org/namespaces/inkscape"
   xmlns:sodipodi="http://sodipodi.sourceforge.net/DTD/sodipodi-0.dtd"
   xmlns="http://www.w3.org/2000/svg"
   xmlns:svg="http://www.w3.org/2000/svg">
  <defs
     id="defs17" />
  <sodipodi:namedview
     id="namedview17"
     pagecolor="#ffffff"
     bordercolor="#000000"
     borderopacity="0.25"
     inkscape:showpageshadow="2"
     inkscape:pageopacity="0.0"
     inkscape:pagecheckerboard="0"
     inkscape:deskcolor="#d1d1d1"
     inkscape:document-units="pt"
     inkscape:zoom="1.0878713"
     inkscape:cx="410.8942"
     inkscape:cy="269.33333"
     inkscape:window-width="1440"
     inkscape:window-height="830"
     inkscape:window-x="-6"
     inkscape:window-y="-6"
     inkscape:window-maximized="1"
     inkscape:current-layer="svg17" />
  <g
     transform="translate(0.000000,404.000000) scale(0.100000,-0.100000)"
     fill="#000000"
     stroke="none"
     id="g17"
     style="fill:#ffffff;fill-opacity:1">
    <path
       d="M1305 2510 c-56 -26 -77 -52 -82 -103 -10 -82 38 -133 162 -174 48 -16 61 -24 63 -43 9 -60 -109 -51 -130 10 -5 17 -98 2 -105 -17 -3 -8 2 -30 11 -49 44 -94 262 -103 329 -13 26 36 27 111 0 147 -23 30 -97 70 -163 87 -38 9 -46 16 -48 37 -6 52 91 64 104 14 5 -22 7 -23 62 -12 71 14 81 40 33 85 -54 51 -164 65 -236 31z"
       id="path1"
       style="fill:#ffffff;fill-opacity:1" />
    <path
       d="M1692 2483 c2 -31 7 -39 26 -41 22 -3 22 -5 22 -153 l0 -149 -26 0 c-23 0 -25 -3 -22 -37 l3 -38 105 0 105 0 3 38 c3 34 1 37 -22 37 -18 0 -26 5 -26 18 0 9 -2 76 -3 149 l-4 132 26 3 c22 3 26 8 26 38 l0 35 -108 3 -108 3 3 -38z"
       id="path2"
       style="fill:#ffffff;fill-opacity:1" />
    <path
       d="M2010 2480 c0 -36 3 -40 25 -40 l25 0 0 -113 c0 -209 45 -267 205 -267 112 0 174 37 194 115 6 24 11 94 11 154 l0 111 25 0 c23 0 25 4 25 40 l0 40 -105 0 -105 0 0 -40 c0 -36 3 -40 25 -40 l25 0 0 -116 c0 -115 0 -116 -30 -146 -27 -27 -36 -30 -73 -25 -68 9 -77 29 -77 168 l0 119 25 0 c23 0 25 4 25 40 l0 40 -110 0 -110 0 0 -40z"
       id="path3"
       style="fill:#ffffff;fill-opacity:1" />
    <path
       d="M2610 2480 c0 -35 3 -40 24 -40 23 0 23 -1 28 -138 5 -169 17 -197 93 -225 118 -44 250 -11 293 73 19 39 22 60 22 166 0 120 1 123 23 126 18 2 22 9 22 38 l0 35 -102 3 -103 3 0 -41 c0 -33 3 -40 20 -40 19 0 20 -7 20 -120 0 -115 -1 -122 -25 -145 -16 -17 -35 -25 -60 -25 -25 0 -44 8 -60 25 -24 23 -25 30 -25 145 0 113 1 120 20 120 17 0 20 7 20 40 l0 40 -105 0 -105 0 0 -40z"
       id="path4"
       style="fill:#ffffff;fill-opacity:1" />
    <path
       d="M3210 2481 c0 -33 4 -40 23 -43 21 -3 22 -7 27 -138 4 -117 8 -140 27 -171 32 -51 92 -72 186 -67 154 8 186 51 186 255 l1 122 28 3 c23 3 27 8 30 41 l3 37 -110 0 -111 0 0 -40 c0 -36 3 -40 25 -40 l25 0 0 -120 c0 -119 0 -121 -27 -146 -24 -22 -35 -25 -73 -21 -71 8 -80 27 -80 168 l0 119 25 0 c23 0 25 4 25 40 l0 40 -105 0 -105 0 0 -39z"
       id="path5"
       style="fill:#ffffff;fill-opacity:1" />
    <path
       d="M4712 2450 c-43 -40 -38 -93 13 -126 31 -20 79 -11 100 19 52 75 -47 168 -113 107z"
       id="path6"
       style="fill:#ffffff;fill-opacity:1" />
    <path
       d="M4328 2416 c-84 -23 -120 -48 -100 -68 8 -8 24 -9 64 0 116 24 135 24 182 3 25 -11 46 -26 46 -34 0 -13 -116 -97 -134 -97 -4 0 -21 -9 -37 -21 -39 -28 -37 -53 11 -153 35 -73 46 -103 38 -107 -2 -1 -52 -4 -113 -8 -103 -6 -110 -7 -113 -28 -2 -12 2 -31 8 -42 10 -20 19 -21 187 -21 l176 0 -6 34 c-3 18 -14 53 -25 77 -25 56 -52 135 -52 154 0 8 19 27 43 42 23 14 58 37 78 50 57 38 75 32 93 -31 9 -30 16 -59 16 -65 0 -6 9 -20 19 -30 17 -17 25 -18 56 -10 19 6 68 15 107 22 75 13 105 34 80 59 -9 9 -29 10 -94 0 -99 -14 -109 -9 -128 76 -21 98 -29 105 -155 166 -63 31 -128 56 -143 55 -15 0 -62 -11 -104 -23z"
       id="path7"
       style="fill:#ffffff;fill-opacity:1" />
    <path
       d="M3926 2261 c-11 -17 27 -21 207 -21 187 0 240 6 215 21 -18 12 -415 11 -422 0z"
       id="path8"
       style="fill:#ffffff;fill-opacity:1" />
    <path
       d="M3965 2210 c4 -6 72 -10 171 -10 103 0 164 4 164 10 0 6 -64 10 -171 10 -111 0 -168 -3 -164 -10z"
       id="path9"
       style="fill:#ffffff;fill-opacity:1" />
    <path
       d="M4000 2160 c0 -6 55 -10 146 -10 94 0 143 4 139 10 -4 6 -63 10 -146 10 -86 0 -139 -4 -139 -10z"
       id="path10"
       style="fill:#ffffff;fill-opacity:1" />
    <path
       d="M1280 1928 c-49 -34 -70 -81 -70 -158 0 -74 18 -112 73 -154 27 -21 45 -26 91 -26 66 0 106 17 136 60 25 35 21 46 -22 55 -25 6 -34 3 -48 -15 -13 -17 -27 -23 -59 -23 -63 0 -76 19 -76 104 0 62 3 73 24 90 40 32 111 19 111 -21 0 -23 2 -23 53 -9 43 11 41 9 23 54 -19 46 -61 65 -139 65 -50 0 -71 -5 -97 -22z"
       id="path11"
       style="fill:#ffffff;fill-opacity:1" />
    <path
       d="M1727 1943 c-2 -5 -7 -21 -11 -38 -6 -24 -45 -132 -81 -227 -4 -10 -13 -18 -21 -18 -9 0 -14 -12 -14 -35 l0 -36 68 3 67 3 -4 30 c-1 17 -8 33 -14 37 -9 5 -9 10 -1 18 15 15 116 9 122 -7 2 -7 -4 -13 -13 -13 -12 0 -16 -8 -13 -32 l3 -33 70 0 70 0 3 31 c2 24 -1 33 -15 36 -18 5 -63 102 -109 236 -18 52 -18 52 -60 52 -24 0 -45 -3 -47 -7z m59 -128 c21 -52 18 -65 -16 -65 -16 0 -30 5 -30 11 0 16 22 89 27 89 2 0 11 -16 19 -35z"
       id="path12"
       style="fill:#ffffff;fill-opacity:1" />
    <path
       d="M2030 1921 c0 -20 6 -30 20 -34 18 -5 20 -14 20 -116 0 -105 -1 -111 -21 -111 -17 0 -20 -5 -17 -32 l3 -33 75 0 75 0 3 33 c3 27 0 32 -17 32 -20 0 -21 6 -21 87 0 47 3 83 7 79 4 -4 26 -58 49 -119 27 -73 47 -113 58 -115 18 -4 47 53 85 171 13 37 25 67 27 67 2 0 4 -38 4 -84 0 -76 -2 -84 -21 -89 -16 -4 -20 -12 -17 -34 3 -28 4 -28 81 -31 l77 -3 0 34 c0 26 -5 36 -20 40 -18 5 -20 14 -20 112 0 98 2 107 20 112 14 4 20 14 20 35 l0 29 -82 -3 -81 -3 -22 -65 c-13 -36 -28 -78 -35 -95 l-12 -30 -14 40 c-9 22 -24 66 -36 98 l-20 57 -84 0 -84 0 0 -29z"
       id="path13"
       style="fill:#ffffff;fill-opacity:1" />
    <path
       d="M2600 1921 c0 -20 6 -30 20 -34 18 -5 20 -14 20 -116 0 -104 -1 -111 -20 -111 -16 0 -20 -7 -20 -35 l0 -36 83 3 82 3 3 33 c3 29 1 32 -23 32 -22 0 -26 4 -23 23 3 19 11 23 58 28 89 10 126 45 124 120 -3 88 -55 119 -204 119 l-100 0 0 -29z m198 -53 c7 -7 12 -27 12 -45 0 -26 -5 -36 -24 -43 -47 -18 -61 -8 -64 48 l-3 52 33 0 c19 0 39 -5 46 -12z"
       id="path14"
       style="fill:#ffffff;fill-opacity:1" />
    <path
       d="M2970 1920 c0 -23 4 -30 20 -30 18 0 20 -7 20 -77 1 -110 12 -152 54 -190 32 -30 42 -33 98 -33 45 0 72 6 95 20 56 33 67 62 71 177 3 79 7 103 18 103 9 0 14 11 14 30 l0 31 -77 -3 c-76 -3 -78 -4 -81 -29 -2 -20 2 -28 19 -32 21 -6 21 -10 17 -102 -4 -106 -9 -115 -66 -115 -66 0 -72 9 -72 120 0 93 1 100 20 100 16 0 20 7 20 30 l0 30 -85 0 -85 0 0 -30z"
       id="path15"
       style="fill:#ffffff;fill-opacity:1" />
    <path
       d="M3482 1920 c-25 -24 -32 -40 -32 -70 0 -54 35 -92 109 -119 33 -12 63 -27 67 -32 20 -33 -70 -44 -96 -12 -12 16 -21 17 -52 10 -40 -9 -44 -17 -28 -47 42 -78 210 -80 251 -4 15 28 14 75 -1 104 -12 22 -101 70 -130 70 -26 0 -40 21 -29 42 13 25 62 24 80 -2 12 -16 20 -18 49 -12 43 10 49 31 17 68 -22 26 -32 29 -99 32 -72 4 -75 3 -106 -28z"
       id="path16"
       style="fill:#ffffff;fill-opacity:1" />
    <path
       d="M4284 1803 c-79 -46 -104 -68 -104 -93 0 -50 39 -64 88 -33 36 23 156 124 160 135 7 16 -113 8 -144 -9z"
       id="path17"
       style="fill:#ffffff;fill-opacity:1" />
  </g>
</svg>
