<?xml version="1.0" encoding="UTF-8" standalone="no"?>
<svg
   version="1.0"
   width="1600.000000pt"
   height="1600.000000pt"
   viewBox="0 0 1600.000000 1600.000000"
   preserveAspectRatio="xMidYMid meet"
   id="svg6"
   sodipodi:docname="LogoCorSano_white.svg"
   inkscape:version="1.4 (86a8ad7, 2024-10-11)"
   xmlns:inkscape="http://www.inkscape.org/namespaces/inkscape"
   xmlns:sodipodi="http://sodipodi.sourceforge.net/DTD/sodipodi-0.dtd"
   xmlns="http://www.w3.org/2000/svg"
   xmlns:svg="http://www.w3.org/2000/svg">
  <defs
     id="defs6" />
  <sodipodi:namedview
     id="namedview6"
     pagecolor="#ffffff"
     bordercolor="#000000"
     borderopacity="0.25"
     inkscape:showpageshadow="2"
     inkscape:pageopacity="0.0"
     inkscape:pagecheckerboard="0"
     inkscape:deskcolor="#d1d1d1"
     inkscape:document-units="pt"
     inkscape:zoom="0.2746875"
     inkscape:cx="1066.6667"
     inkscape:cy="1066.6667"
     inkscape:window-width="1440"
     inkscape:window-height="830"
     inkscape:window-x="-6"
     inkscape:window-y="-6"
     inkscape:window-maximized="1"
     inkscape:current-layer="svg6" />
  <g
     transform="translate(0.000000,1600.000000) scale(0.100000,-0.100000)"
     fill="#000000"
     stroke="none"
     id="g6"
     style="fill:#ffffff;fill-opacity:1">
    <path
       d="M9518 14659 c-493 -52 -932 -258 -1196 -561 -78 -90 -176 -233 -192 -283 -10 -31 -16 -36 -34 -30 -225 67 -378 89 -611 88 -775 -3 -1710 -296 -2533 -795 -322 -195 -732 -504 -1007 -759 -183 -169 -397 -375 -450 -430 -32 -35 -91 -98 -130 -139 -114 -122 -235 -260 -356 -404 -13 -16 -28 -34 -34 -40 -5 -6 -37 -44 -69 -84 -32 -40 -68 -81 -80 -90 -23 -19 -137 -147 -202 -227 -23 -27 -68 -90 -101 -140 -60 -89 -349 -582 -498 -850 -83 -148 -305 -595 -350 -705 -143 -346 -162 -396 -230 -613 -102 -320 -177 -687 -210 -1027 -9 -91 -23 -186 -32 -212 -23 -72 -13 -741 15 -958 60 -464 192 -958 369 -1380 324 -773 683 -1315 1219 -1840 148 -145 374 -351 488 -445 27 -22 54 -45 60 -50 47 -44 395 -290 581 -410 295 -190 856 -495 1125 -610 172 -74 419 -139 670 -175 80 -12 188 -32 240 -45 243 -61 595 -111 1030 -147 208 -17 872 -17 1050 0 756 74 1543 291 2165 597 208 103 345 184 625 371 267 177 431 312 674 552 275 273 297 300 428 532 96 170 133 246 161 335 109 346 140 464 161 610 8 55 13 101 11 104 -2 2 -7 -10 -10 -25 -21 -104 -104 -299 -273 -644 -156 -319 -223 -411 -472 -660 -180 -180 -212 -204 -430 -326 -376 -210 -772 -388 -991 -446 -269 -71 -483 -29 -685 135 -101 82 -111 94 -129 153 -103 333 -17 922 180 1224 57 88 88 114 169 144 87 33 119 33 274 -3 192 -44 267 -52 483 -46 169 4 204 7 250 25 160 64 320 259 399 489 43 125 60 241 70 461 12 269 41 399 123 554 24 45 47 70 99 108 111 81 179 168 286 370 30 57 31 139 1 166 -11 11 -95 71 -188 135 -167 115 -210 153 -268 237 -108 158 -128 313 -85 655 45 359 51 568 22 793 -29 221 -99 401 -189 485 -27 26 -60 47 -72 47 -30 0 -114 -22 -339 -90 -336 -101 -666 -190 -1115 -302 -337 -83 -439 -113 -567 -164 -143 -56 -172 -63 -663 -159 -99 -20 -245 -49 -325 -65 -203 -41 -461 -88 -770 -141 -299 -51 -1051 -203 -1208 -244 -31 -9 -127 -22 -212 -31 -106 -10 -160 -20 -170 -30 -12 -12 -15 -48 -15 -197 0 -168 3 -194 34 -336 78 -362 198 -642 417 -971 167 -251 324 -433 490 -573 53 -44 103 -96 118 -122 91 -154 213 -433 281 -640 102 -308 124 -552 74 -800 -32 -153 -120 -380 -212 -540 -12 -22 -40 -71 -61 -108 -58 -102 -140 -211 -219 -288 -32 -31 -275 -130 -432 -177 -121 -36 -425 -77 -500 -68 -52 7 -325 58 -545 102 -136 27 -391 95 -565 151 -119 38 -335 140 -335 158 0 6 11 22 24 34 54 51 100 203 117 391 31 320 -56 800 -201 1114 -81 176 -209 376 -317 497 -231 259 -393 409 -606 559 -76 53 -231 167 -389 287 -114 86 -166 123 -175 123 -4 0 7 -15 24 -33 36 -37 95 -146 143 -262 18 -44 52 -125 75 -181 103 -241 151 -430 162 -629 3 -66 -1 -210 -12 -360 -11 -157 -16 -301 -12 -389 3 -76 2 -134 -2 -130 -87 98 -296 385 -438 599 -167 254 -419 708 -478 862 -77 201 -210 688 -264 963 -130 672 -146 1352 -45 1925 57 321 185 767 301 1049 53 131 203 429 324 647 219 392 483 784 792 1172 100 125 140 165 122 120 -41 -105 -17 -263 64 -418 42 -81 169 -215 274 -289 140 -98 345 -184 552 -232 113 -27 469 -27 600 -1 229 46 453 128 613 224 128 76 191 124 282 215 111 110 316 369 365 461 15 29 44 75 64 102 54 73 91 141 91 164 0 20 -2 20 -57 -9 -67 -34 -143 -51 -338 -76 -116 -14 -153 -15 -225 -6 -194 26 -363 112 -760 387 -104 72 -224 129 -327 156 -154 41 -374 26 -575 -37 -44 -14 -82 -24 -84 -21 -5 4 235 241 346 342 61 56 264 229 355 304 256 209 582 432 865 591 581 326 1293 563 1910 636 208 24 537 24 758 0 l172 -20 -7 -65 c-11 -95 -8 -306 6 -376 38 -192 104 -347 212 -500 89 -124 299 -334 446 -443 624 -468 1371 -742 2218 -812 156 -13 567 -13 770 0 441 28 989 112 1320 201 209 56 199 56 307 25 53 -15 123 -30 155 -33 l58 -6 -95 75 c-52 41 -158 125 -235 187 -77 62 -169 132 -205 156 -81 54 -190 135 -266 199 -121 101 -363 356 -483 508 -131 166 -135 171 -353 488 -78 113 -155 224 -172 247 -17 23 -56 77 -86 120 -392 558 -742 827 -1274 979 -277 79 -623 111 -888 83z m640 -975 c49 -14 26 -37 -143 -144 -55 -35 -124 -73 -152 -86 -29 -13 -53 -28 -53 -32 0 -5 33 -23 73 -41 154 -68 367 -205 518 -334 81 -70 126 -120 182 -205 34 -52 74 -158 64 -168 -6 -6 -221 138 -337 226 -174 132 -514 339 -599 365 l-24 7 22 -28 c124 -163 216 -383 243 -585 8 -59 8 -91 1 -104 -12 -21 -2 -35 -110 150 -143 246 -299 477 -370 549 -39 39 -78 84 -88 99 -10 15 -26 32 -35 37 -18 10 -340 83 -417 95 -88 14 -49 38 87 55 141 17 275 10 482 -26 34 -6 42 -3 81 33 75 69 193 127 292 144 53 8 245 4 283 -7z m-6388 -2409 c161 -128 372 -220 606 -265 130 -25 345 -28 419 -5 27 8 51 13 53 11 7 -8 -27 -61 -55 -87 -120 -111 -323 -138 -568 -75 -55 14 -101 26 -104 26 -2 0 16 -19 40 -43 24 -23 73 -78 108 -122 58 -73 62 -80 45 -92 -23 -17 -66 -16 -133 2 -182 48 -329 197 -347 352 -6 47 -11 56 -60 98 -63 54 -110 118 -131 181 -17 51 -11 94 15 94 9 0 60 -34 112 -75z m-415 -6660 c103 -144 214 -439 241 -639 4 -25 10 -49 14 -51 8 -5 60 99 92 183 29 77 42 58 35 -52 -9 -128 -34 -240 -72 -321 -19 -38 -37 -90 -40 -115 -9 -55 -54 -155 -65 -143 -9 8 -29 112 -55 278 -16 104 -90 405 -140 575 -41 137 -95 348 -95 368 0 22 34 -11 85 -83z"
       id="path1"
       style="fill:#ffffff;fill-opacity:1" />
    <path
       d="M8745 10149 c-398 -8 -967 -33 -1175 -51 -87 -8 -394 -13 -858 -13 -700 -1 -723 -2 -737 -21 -18 -24 -38 -111 -34 -144 4 -23 8 -25 58 -25 101 0 445 13 631 25 102 6 307 17 455 25 350 19 898 51 1095 65 85 5 243 15 350 21 455 25 906 60 1015 80 70 13 98 29 68 40 -22 9 -387 8 -868 -2z"
       id="path2"
       style="fill:#ffffff;fill-opacity:1" />
    <path
       d="M13666 10078 c4 -13 33 -79 65 -147 32 -69 56 -128 53 -132 -2 -4 -21 -13 -42 -19 -66 -22 -214 -101 -277 -148 -338 -256 -596 -754 -705 -1364 -41 -230 -41 -518 0 -714 11 -54 48 -173 81 -264 188 -513 236 -651 258 -743 53 -220 43 -384 -35 -574 -54 -132 -102 -219 -152 -274 l-44 -49 54 0 c147 0 405 72 543 151 269 153 649 595 937 1089 152 260 239 487 285 740 22 120 24 454 5 585 -66 440 -245 909 -465 1220 -75 106 -252 291 -328 343 -44 30 -46 33 -52 92 -10 93 -62 181 -129 216 -42 22 -61 18 -52 -8z m125 -1110 c-61 -370 -61 -366 -46 -449 21 -121 62 -272 135 -494 121 -368 148 -475 121 -475 -17 0 -114 70 -148 108 -49 53 -118 159 -141 217 -15 38 -22 46 -27 33 -9 -22 3 -790 13 -880 9 -77 0 -87 -35 -35 -118 174 -180 576 -155 1010 6 111 19 255 27 321 9 65 14 120 12 122 -2 2 -36 -38 -77 -89 -76 -94 -136 -154 -146 -144 -8 8 48 177 103 312 49 119 83 176 161 274 29 36 57 83 63 105 20 76 41 131 76 199 40 80 96 148 101 123 2 -8 -15 -125 -37 -258z"
       id="path3"
       style="fill:#ffffff;fill-opacity:1" />
    <path
       d="M9700 10064 c-91 -7 -212 -20 -270 -28 -58 -8 -134 -18 -170 -21 -87 -8 -448 -52 -585 -70 -935 -127 -1423 -183 -2010 -230 -531 -42 -710 -55 -768 -55 -66 0 -88 -12 -115 -65 -17 -34 -72 -254 -79 -315 -5 -53 -4 -58 16 -65 33 -10 235 5 341 25 52 11 172 28 265 40 472 58 681 84 905 116 135 19 326 41 425 50 190 16 304 31 710 95 138 21 356 55 485 74 257 39 551 85 730 114 63 10 153 24 200 30 47 7 113 17 148 23 59 11 62 13 62 40 0 60 -94 263 -119 257 -3 -1 -80 -8 -171 -15z"
       id="path4"
       style="fill:#ffffff;fill-opacity:1" />
    <path
       d="M10110 9640 c-14 -5 -70 -16 -125 -24 -55 -8 -262 -45 -460 -81 -339 -62 -444 -81 -675 -120 -52 -8 -120 -20 -150 -25 -153 -29 -860 -129 -1335 -190 -348 -45 -651 -86 -805 -110 -74 -11 -238 -36 -365 -55 -126 -19 -277 -44 -335 -55 -58 -11 -115 -20 -127 -20 -76 0 -94 -50 -83 -232 11 -183 26 -192 225 -143 56 14 190 34 305 45 113 12 318 34 455 50 364 44 478 56 795 90 157 17 359 40 449 51 158 19 426 64 442 75 4 2 151 23 326 45 582 73 1251 167 1498 210 66 11 143 24 172 28 66 10 86 25 78 62 -10 45 -152 369 -171 390 -18 20 -69 24 -114 9z"
       id="path5"
       style="fill:#ffffff;fill-opacity:1" />
    <path
       d="M10358 9055 c-53 -8 -168 -27 -255 -44 -87 -17 -212 -40 -278 -52 -110 -19 -383 -69 -565 -104 -41 -8 -140 -28 -220 -45 -767 -160 -1490 -298 -1930 -369 -168 -27 -244 -38 -565 -86 -55 -8 -201 -29 -325 -45 -124 -17 -250 -35 -280 -40 -196 -34 -307 -50 -340 -50 -65 0 -75 -23 -115 -260 -33 -191 -32 -312 1 -357 21 -27 25 -28 100 -27 69 2 192 20 529 79 262 46 930 179 1430 285 160 34 322 68 360 76 77 16 183 39 495 108 185 41 293 66 600 135 215 49 660 156 878 212 129 33 276 66 329 75 255 41 456 97 504 140 11 9 19 27 19 39 0 61 -76 291 -108 328 -19 21 -117 22 -264 2z"
       id="path6"
       style="fill:#ffffff;fill-opacity:1" />
  </g>
</svg>
